# xmcd
#
# Track frame offsets: 
#        150
#        17448
#        35678
#
# Disc length: 749 seconds
#
# Revision: 0
# Processed by: cddbd v1.5.1PL0 Copyright (c) Steve Scherf et al.
# Submitted via: ExactAudioCopy v0.95a5
#
DISCID=1902eb03
DTITLE=Tina Arena - Italian Love Song
DYEAR=2004
DGENRE=Pop
TTITLE0=Italian Love Song
TTITLE1=Take Me Apart
TTITLE2=Dare You To Be Happy (Remix)
EXTD=
EXTT0=
EXTT1=
EXTT2=
PLAYORDER=
